<svg width="153" height="43" viewBox="0 0 153 43" fill="none" xmlns="http://www.w3.org/2000/svg">
<path d="M65.2 14.074V17H53.606V2.47998H64.914V5.40598H57.39V8.35398H63.374V11.104H57.39V14.074H65.2Z" fill="white"/>
<path d="M84.2929 17H80.9489V10.334L81.0589 5.86798H81.0149L77.4289 17H74.3709L70.7849 5.86798H70.7409L70.8509 10.334V17H67.4849V2.47998H72.8749L75.1629 9.87198L75.9769 12.952H76.0209L76.8569 9.89398L79.1229 2.47998H84.2929V17Z" fill="white"/>
<path d="M95.8243 13.722H90.8083L89.7963 17H85.9903L91.0943 2.47998H95.6263L100.708 17H96.8143L95.8243 13.722ZM95.0323 11.148L93.9763 7.67198L93.3383 5.38398H93.2943L92.7003 7.64998L91.6003 11.148H95.0323Z" fill="white"/>
<path d="M106.181 17H102.397V2.47998H106.181V17Z" fill="white"/>
<path d="M120.467 14.074V17H109.401V2.47998H113.185V14.074H120.467Z" fill="white"/>
<path d="M57.39 31.406V34.486H63.374V37.412H57.39V43H53.606V28.48H64.892V31.406H57.39Z" fill="white"/>
<path d="M70.8607 43H67.0767V28.48H70.8607V43Z" fill="white"/>
<path d="M87.1706 43H82.9686L78.4586 35.146L77.3586 32.946H77.3366L77.4246 35.674V43H74.0806V28.48H78.2826L82.7926 36.334L83.8926 38.534H83.9146L83.8266 35.806V28.48H87.1706V43Z" fill="white"/>
<path d="M96.5472 28.48C98.8206 28.48 100.559 29.1106 101.761 30.372C102.979 31.6186 103.587 33.408 103.587 35.74C103.587 38.072 102.979 39.8686 101.761 41.13C100.559 42.3766 98.8206 43 96.5472 43H90.3872V28.48H96.5472ZM96.1732 40.14C97.3906 40.14 98.2852 39.7733 98.8572 39.04C99.4292 38.3066 99.7152 37.2066 99.7152 35.74C99.7152 34.2733 99.4292 33.1733 98.8572 32.44C98.2852 31.7066 97.3906 31.34 96.1732 31.34H94.1712V40.14H96.1732Z" fill="white"/>
<path d="M117.772 40.074V43H106.178V28.48H117.486V31.406H109.962V34.354H115.946V37.104H109.962V40.074H117.772Z" fill="white"/>
<path d="M126.041 37.698H123.775V43H120.057V28.48H126.987C128.747 28.48 130.096 28.876 131.035 29.668C131.988 30.46 132.465 31.604 132.465 33.1C132.465 34.156 132.223 35.036 131.739 35.74C131.255 36.444 130.551 36.9646 129.627 37.302L133.323 43H129.143L126.041 37.698ZM123.775 35.014H126.349C127.156 35.014 127.742 34.8673 128.109 34.574C128.476 34.2806 128.659 33.8113 128.659 33.166C128.659 32.5353 128.476 32.0733 128.109 31.78C127.742 31.4866 127.156 31.34 126.349 31.34H123.775V35.014Z" fill="white"/>
<path d="M28.4287 29.8618C28.062 29.8618 27.6952 29.7218 27.4152 29.4418L21.5725 23.5991C21.0126 23.0392 21.0126 22.132 21.5725 21.572C22.1325 21.012 23.0397 21.012 23.5997 21.572L29.4423 27.4147C30.0023 27.9746 30.0023 28.8818 29.4423 29.4418C29.1623 29.7218 28.7955 29.8618 28.4287 29.8618Z" fill="white"/>
<path d="M13.8218 27.6428C10.2806 27.6428 6.73948 26.2947 4.0439 23.5991C-1.34797 18.208 -1.34797 9.43454 4.0439 4.04337C9.43506 -1.34779 18.2085 -1.34779 23.5996 4.04337C28.9915 9.43454 28.9915 18.208 23.5996 23.5991C20.9041 26.2947 17.3629 27.6428 13.8218 27.6428ZM13.8218 2.86532C11.0149 2.86532 8.20802 3.93348 6.07101 6.07049C1.7977 10.3445 1.7977 17.298 6.07101 21.572C10.345 25.846 17.2985 25.846 21.5725 21.572C25.8458 17.298 25.8458 10.3445 21.5725 6.07049C19.4355 3.93348 16.6287 2.86532 13.8218 2.86532Z" fill="white"/>
<path d="M36.6086 42.9995C34.9014 42.9995 33.2963 42.3345 32.0896 41.1271L27.4152 36.4534C24.9233 33.9615 24.9233 29.9065 27.4152 27.4147C29.9078 24.9228 33.9627 24.9242 36.4539 27.4147L41.1276 32.0891C42.335 33.2958 43 34.9008 43 36.6081C43 38.3153 42.335 39.9203 41.1276 41.1271C39.9208 42.3345 38.3158 42.9995 36.6086 42.9995ZM31.9349 28.4114C31.0319 28.4114 30.1297 28.7544 29.4423 29.4418C28.0683 30.8158 28.0683 33.0522 29.4423 34.4263L34.1167 39.0999C35.448 40.4313 37.7691 40.4313 39.1005 39.0999C39.7661 38.4343 40.1329 37.5495 40.1329 36.6081C40.1329 35.6666 39.7661 34.7818 39.1005 34.1162L34.4268 29.4418C33.7394 28.7551 32.8371 28.4114 31.9349 28.4114Z" fill="white"/>
<path d="M40.1144 33.1024L35.4401 28.4282C33.504 26.492 30.3649 26.492 28.4288 28.4282C26.4926 30.3644 26.4926 33.5034 28.4288 35.4396L33.103 40.1138C35.0391 42.0499 38.1782 42.0499 40.1144 40.1138C42.0505 38.1776 42.0505 35.0386 40.1144 33.1024ZM32.1872 35.0537C30.6038 35.0537 29.3201 33.7701 29.3201 32.1866C29.3201 30.6032 30.6038 29.3196 32.1872 29.3196C33.7706 29.3196 35.0543 30.6032 35.0543 32.1866C35.0543 33.7701 33.7706 35.0537 32.1872 35.0537Z" fill="white"/>
<path d="M12.7179 18.2108C12.3511 18.2108 11.9843 18.0708 11.7044 17.7908L9.01507 15.1022C8.4551 14.5429 8.4551 13.6351 9.01507 13.0751C9.57505 12.5151 10.4822 12.5151 11.0422 13.0751L12.7179 14.7501L17.6163 9.85174C18.1763 9.29177 19.0834 9.29177 19.6434 9.85174C20.2034 10.4117 20.2034 11.3189 19.6434 11.8789L13.7315 17.7908C13.4515 18.0708 13.0847 18.2108 12.7179 18.2108Z" fill="white"/>
<path d="M126 17.5V2H153L150.5 10L153 17.5H126Z" fill="#FF0000"/>
<path d="M138.156 9.12802L137.868 10.916H139.236V11.96H137.7L137.364 14H136.188L136.524 11.96H134.808L134.472 14H133.296L133.62 11.96H132.288V10.916H133.8L134.088 9.12802H132.804V8.08402H134.256L134.58 6.08002H135.768L135.444 8.08402H137.148L137.484 6.08002H138.66L138.336 8.08402H139.752V9.12802H138.156ZM136.98 9.12802H135.264L134.976 10.916H136.692L136.98 9.12802Z" fill="white"/>
<path d="M144.167 6.08002V14H142.559V8.09602C142.559 7.96802 142.563 7.86802 142.571 7.79602C142.283 8.06002 141.971 8.28402 141.635 8.46802C141.307 8.65202 140.975 8.77602 140.639 8.84002L140.423 7.44802C140.791 7.40802 141.231 7.24402 141.743 6.95602C142.263 6.66002 142.623 6.36802 142.823 6.08002H144.167Z" fill="white"/>
</svg>
